<svg xmlns="http://www.w3.org/2000/svg" viewBox="0 0 24.72 24.72"><defs><style>.cls-1{fill-rule:evenodd;}</style></defs><title>Asset 19</title><g id="Layer_2" data-name="Layer 2"><g id="Layer_1-2" data-name="Layer 1"><path d="M12.36,1.69A10.67,10.67,0,1,1,1.69,12.36,10.69,10.69,0,0,1,12.36,1.69m0-1.69A12.36,12.36,0,1,0,24.72,12.36,12.36,12.36,0,0,0,12.36,0Z"/><path class="cls-1" d="M14,7.77h1.54V5.43c-.24,0-.5-.06-.75-.07-.46,0-.92-.05-1.38,0a3.44,3.44,0,0,0-2,.61,2.94,2.94,0,0,0-1.17,2,6.74,6.74,0,0,0-.08,1c0,.53,0,1,0,1.58v.2H7.91v2.61h2.22v6.56h2.72V13.28h2.22c.11-.87.22-1.73.34-2.63H12.83s0-1.29,0-1.85C12.88,8,13.33,7.79,14,7.77Z"/></g></g></svg>