<svg xmlns="http://www.w3.org/2000/svg" viewBox="0 0 24.72 24.72"><title>Asset 16</title><g id="Layer_2" data-name="Layer 2"><g id="Layer_1-2" data-name="Layer 1"><path d="M12.36,1.69A10.67,10.67,0,1,1,1.69,12.36,10.69,10.69,0,0,1,12.36,1.69m0-1.69A12.36,12.36,0,1,0,24.72,12.36,12.36,12.36,0,0,0,12.36,0Z"/><path d="M7.07,9.77H9.58v8.06H7.07Zm1.26-4A1.45,1.45,0,1,1,6.88,7.22,1.45,1.45,0,0,1,8.33,5.77"/><path d="M11.16,9.77h2.4v1.11h0A2.63,2.63,0,0,1,16,9.57c2.54,0,3,1.67,3,3.84v4.42H16.46V13.92c0-.94,0-2.14-1.3-2.14s-1.5,1-1.5,2.07v4h-2.5Z"/></g></g></svg>