<svg xmlns="http://www.w3.org/2000/svg" viewBox="0 0 24.72 24.72"><defs><style>.cls-1{fill-rule:evenodd;}</style></defs><title>Asset 18</title><g id="Layer_2" data-name="Layer 2"><g id="Layer_1-2" data-name="Layer 1"><path d="M12.36,1.69A10.67,10.67,0,1,1,1.69,12.36,10.69,10.69,0,0,1,12.36,1.69m0-1.69A12.36,12.36,0,1,0,24.72,12.36,12.36,12.36,0,0,0,12.36,0Z"/><path class="cls-1" d="M10.11,16A2.91,2.91,0,0,1,7.4,14a2.93,2.93,0,0,0,1.25,0l0,0A2.92,2.92,0,0,1,6.8,12.62a2.8,2.8,0,0,1-.42-1.55,2.8,2.8,0,0,0,1.29.35,2.91,2.91,0,0,1-.88-3.87,8.29,8.29,0,0,0,6,3c0-.11,0-.22,0-.32a2.83,2.83,0,0,1,.43-1.9,2.91,2.91,0,0,1,4.51-.5.16.16,0,0,0,.16,0,5.67,5.67,0,0,0,1.69-.64l0,0h0a3,3,0,0,1-1.25,1.59A6.08,6.08,0,0,0,20,8.39h0l-.33.44a5.59,5.59,0,0,1-1.06,1s-.05.05-.05.09a7.87,7.87,0,0,1-.05,1.29,8.3,8.3,0,0,1-.75,2.59,8.4,8.4,0,0,1-1.57,2.29,7.73,7.73,0,0,1-4,2.23,8.14,8.14,0,0,1-1.62.19,8.18,8.18,0,0,1-4.65-1.25l-.07,0a5.83,5.83,0,0,0,2.9-.4A5.73,5.73,0,0,0,10.11,16Z"/></g></g></svg>