<svg xmlns="http://www.w3.org/2000/svg" viewBox="0 0 24.72 24.72"><title>Asset 23</title><g id="Layer_2" data-name="Layer 2"><g id="Layer_1-2" data-name="Layer 1"><path d="M12.36,1.69A10.67,10.67,0,1,1,1.69,12.36,10.69,10.69,0,0,1,12.36,1.69m0-1.69A12.36,12.36,0,1,0,24.72,12.36,12.36,12.36,0,0,0,12.36,0Z"/><path d="M7.54,17h9.78a1.83,1.83,0,0,0,1.84-1.83V9a1.83,1.83,0,0,0-1.84-1.83H7.54A1.84,1.84,0,0,0,5.7,9v6.12A1.84,1.84,0,0,0,7.54,17Zm10.4-2.09-2.81-2.8,2.81-2.81Zm-6.81-1.4a1.83,1.83,0,0,0,2.6,0l.54-.54,2.8,2.81H7.79L10.59,13Zm1.73-.86a.62.62,0,0,1-.86,0L7.79,8.43h9.28ZM9.73,12.1l-2.8,2.8V9.29Z"/></g></g></svg>