<svg xmlns="http://www.w3.org/2000/svg" viewBox="0 0 24.72 24.72"><title>Asset 17</title><g id="Layer_2" data-name="Layer 2"><g id="Layer_1-2" data-name="Layer 1"><path d="M12.36,1.69A10.67,10.67,0,1,1,1.69,12.36,10.69,10.69,0,0,1,12.36,1.69m0-1.69A12.36,12.36,0,1,0,24.72,12.36,12.36,12.36,0,0,0,12.36,0Z"/><path d="M12.36,5.07a7.29,7.29,0,1,0,7.29,7.29A7.3,7.3,0,0,0,12.36,5.07Zm4.71,3.56A6,6,0,0,1,18.36,12a11,11,0,0,0-4.1-.07c-.15-.35-.3-.69-.46-1A8.66,8.66,0,0,0,17.07,8.63Zm-.91-.92a7.45,7.45,0,0,1-2.95,2.08c-.13-.23-.25-.44-.38-.65A19.88,19.88,0,0,0,11,6.52a6,6,0,0,1,1.41-.17A6,6,0,0,1,16.16,7.71ZM9.66,7A18.2,18.2,0,0,1,12,10.22a19.24,19.24,0,0,1-5.43.65A6.06,6.06,0,0,1,9.66,7ZM6.35,12.36a1.48,1.48,0,0,1,0-.21h.55a21.8,21.8,0,0,0,3.53-.28,16.13,16.13,0,0,0,2.15-.51c.14.28.28.57.41.88a9.38,9.38,0,0,0-2.93,1.59,10.75,10.75,0,0,0-2.23,2.48A6,6,0,0,1,6.35,12.36ZM8.8,17.2a9.44,9.44,0,0,1,2.07-2.36,8.09,8.09,0,0,1,2.61-1.41A20.1,20.1,0,0,1,14.56,18,6,6,0,0,1,8.8,17.2Zm7,.11a20.67,20.67,0,0,0-1-4.17,9.91,9.91,0,0,1,3.57.16A6,6,0,0,1,15.77,17.31Z"/></g></g></svg>