<svg xmlns="http://www.w3.org/2000/svg" viewBox="0 0 34.56 33.42"><defs><style>.cls-1{fill:#ccc;}</style></defs><title>Asset 40</title><g id="Layer_2" data-name="Layer 2"><g id="OBJECTS"><path class="cls-1" d="M32,33.42H21.91a2.61,2.61,0,0,1-2.52-2.1,3.17,3.17,0,0,1-.05-.53V22.44a.71.71,0,0,0-.69-.44H15.91a.72.72,0,0,0-.69.44v8.35a3.07,3.07,0,0,1-.05.53,2.6,2.6,0,0,1-2.52,2.1H2.57A2.6,2.6,0,0,1,0,30.79V17.53L17.28,0,34.56,17.53V30.79A2.6,2.6,0,0,1,32,33.42ZM15.91,20h2.74a2.71,2.71,0,0,1,2.67,2.1l0,.21v8.48s0,.09,0,.14a.6.6,0,0,0,.56.49H32a.6.6,0,0,0,.57-.63V18.35L17.28,2.85,2,18.35V30.79a.61.61,0,0,0,.57.63H12.65a.59.59,0,0,0,.56-.5.57.57,0,0,0,0-.13l0-8.68A2.71,2.71,0,0,1,15.91,20Z"/></g></g></svg>